<?xml version="1.0" encoding="UTF-8" standalone="no"?>
<svg
   xmlns:dc="http://purl.org/dc/elements/1.1/"
   xmlns:cc="http://creativecommons.org/ns#"
   xmlns:rdf="http://www.w3.org/1999/02/22-rdf-syntax-ns#"
   xmlns:svg="http://www.w3.org/2000/svg"
   xmlns="http://www.w3.org/2000/svg"
   xmlns:sodipodi="http://sodipodi.sourceforge.net/DTD/sodipodi-0.dtd"
   xmlns:inkscape="http://www.inkscape.org/namespaces/inkscape"
   version="1.1"
   id="svg2"
   xml:space="preserve"
   width="1122.52"
   height="515.19464"
   viewBox="0 0 1122.52 515.19464"
   sodipodi:docname="axonlab_logo_CMYK (4).ai"><metadata
     id="metadata8"><rdf:RDF><cc:Work
         rdf:about=""><dc:format>image/svg+xml</dc:format><dc:type
           rdf:resource="http://purl.org/dc/dcmitype/StillImage" /></cc:Work></rdf:RDF></metadata><defs
     id="defs6"><clipPath
       clipPathUnits="userSpaceOnUse"
       id="clipPath28"><path
         d="M 0,386.396 H 841.89 V 0 H 0 Z"
         id="path26" /></clipPath></defs><sodipodi:namedview
     pagecolor="#ffffff"
     bordercolor="#666666"
     borderopacity="1"
     objecttolerance="10"
     gridtolerance="10"
     guidetolerance="10"
     inkscape:pageopacity="0"
     inkscape:pageshadow="2"
     inkscape:window-width="640"
     inkscape:window-height="480"
     id="namedview4" /><g
     id="g10"
     inkscape:groupmode="layer"
     inkscape:label="axonlab_logo_CMYK (4)"
     transform="matrix(1.3333333,0,0,-1.3333333,0,515.19467)"><path
       d="M 14.731,174.686 H 211.415 V 371.37 H 14.731 Z"
       style="fill:#ffd500;fill-opacity:1;fill-rule:nonzero;stroke:none"
       id="path12" /><g
       id="g14"
       transform="translate(152.2417,350.5825)"><path
         d="M 0,0 59.174,-175.879 H 41.659 l -15.166,49.667 H -47.49 l -14.895,-49.667 h -16.73 L -19.163,0 Z m 22.054,-112.095 -32.16,94.795 h -0.521 l -31.895,-94.795 z"
         style="fill:#1d1d1b;fill-opacity:1;fill-rule:nonzero;stroke:none"
         id="path16" /></g><g
       id="g18"
       transform="translate(261.4985,245.02)"><path
         d="m 0,0 -32.681,61.693 h 18.828 L 10.192,12.026 36.335,61.693 h 17.25 L 19.078,0.785 57.247,-70.314 H 38.169 L 9.15,-13.075 -21.176,-70.314 H -38.69 Z"
         style="fill:#1d1d1b;fill-opacity:1;fill-rule:nonzero;stroke:none"
         id="path20" /></g><g
       id="g22"><g
         id="g24"
         clip-path="url(#clipPath28)"><g
           id="g30"
           transform="translate(333.1265,226.4565)"><path
             d="m 0,0 v 31.368 c 0,16.736 0.257,51.501 45.492,51.501 45.22,0 45.477,-34.765 45.477,-51.501 V 0 c 0,-34.244 -11.761,-54.371 -45.477,-54.371 C 11.762,-54.371 0,-34.244 0,0 m 72.149,-24.309 c 2.612,6.538 3.14,30.332 3.14,38.69 0,38.947 -3.918,55.948 -29.797,55.948 -25.887,0 -29.804,-17.001 -29.804,-55.948 0,-8.358 0.52,-32.152 3.14,-38.69 1.298,-3.133 4.96,-17.507 26.664,-17.507 21.696,0 25.351,14.374 26.657,17.507"
             style="fill:#1d1d1b;fill-opacity:1;fill-rule:nonzero;stroke:none"
             id="path32" /></g><g
           id="g34"
           transform="translate(470.749,174.7041)"><path
             d="M 0,0 H -15.681 V 132.008 H 0 v -16.202 h 0.521 c 7.586,10.985 17.779,18.821 31.888,18.821 32.689,0 36.078,-24.316 36.078,-41.566 V 0 H 52.808 v 92.275 c 0,15.424 -6.017,29.805 -24.317,29.805 C 14.381,122.08 0,112.402 0,82.861 Z"
             style="fill:#1d1d1b;fill-opacity:1;fill-rule:nonzero;stroke:none"
             id="path36" /></g><path
           d="m 569.533,350.673 h 15.694 V 174.7 h -15.694 z"
           style="fill:#b2b2b2;fill-opacity:1;fill-rule:nonzero;stroke:none"
           id="path38" /><g
           id="g40"
           transform="translate(687.2197,190.9057)"><path
             d="m 0,0 h -0.521 c -8.372,-12.54 -21.168,-18.82 -37.384,-18.82 -23.524,0 -36.327,15.951 -36.327,38.954 0,46.262 46.511,41.566 73.197,43.658 v 10.977 c 0,19.341 -5.745,31.11 -26.686,31.11 -14.359,0 -25.864,-7.066 -25.864,-22.746 h -16.736 c 1.312,25.358 20.919,35.286 43.928,35.286 13.332,0 41.032,-1.306 41.032,-35.029 V 16.994 c 0,-9.407 0,-17.779 1.569,-33.195 l -16.208,0 z m -1.035,51.237 c -22.496,-0.785 -56.476,1.835 -56.476,-30.318 0,-14.902 7.594,-27.185 23.803,-27.185 18.028,0 32.673,16.208 32.673,33.458 z"
             style="fill:#b2b2b2;fill-opacity:1;fill-rule:nonzero;stroke:none"
             id="path42" /></g><g
           id="g44"
           transform="translate(731.751,174.7041)"><path
             d="m 0,0 c 0.778,4.439 1.556,8.628 1.556,13.068 v 162.811 h 15.702 v -58.774 l 0.52,-0.521 c 8.109,12.547 18.557,18.043 33.452,18.043 42.887,0 39.483,-44.971 39.483,-68.495 0,-29.012 -2.349,-68.752 -40.781,-68.752 -15.431,0 -26.658,6.281 -33.196,18.564 H 16.201 L 16.201,0 Z m 45.228,9.935 c 29.019,0 29.797,24.83 29.797,55.676 0,30.847 -0.778,56.469 -29.797,56.469 -25.373,0 -28.492,-34.251 -28.492,-54.114 0,-20.918 0,-58.031 28.492,-58.031"
             style="fill:#b2b2b2;fill-opacity:1;fill-rule:nonzero;stroke:none"
             id="path46" /></g><g
           id="g48"
           transform="translate(37.7378,55.4707)"><path
             d="m 0,0 c -2.405,1.007 -4.81,1.471 -6.816,1.471 -7.016,0 -10.962,-6.282 -10.962,-12.762 0,-6.08 3.276,-12.761 11.362,-12.761 2.141,0 4.81,0.671 6.751,1.935 l 0.464,-5.611 c -2.605,-1.206 -5.609,-1.398 -7.879,-1.398 -10.292,0 -17.378,8.079 -17.378,17.835 0,10.356 6.951,17.843 17.378,17.843 2.534,0 5.809,-0.607 7.615,-1.334 z"
             style="fill:#1d1d1b;fill-opacity:1;fill-rule:nonzero;stroke:none"
             id="path50" /></g><g
           id="g52"
           transform="translate(61.3901,62.0215)"><path
             d="m 0,0 c 10.356,0 17.308,-7.487 17.308,-17.843 0,-9.749 -7.088,-17.836 -17.308,-17.836 -10.292,0 -17.372,8.087 -17.372,17.836 C -17.372,-7.487 -10.427,0 0,0 m 0,-30.597 c 7.351,0 10.627,6.681 10.627,12.754 0,6.481 -3.947,12.761 -10.627,12.761 -6.751,0 -10.691,-6.28 -10.691,-12.761 0,-6.073 3.275,-12.754 10.691,-12.754"
             style="fill:#1d1d1b;fill-opacity:1;fill-rule:nonzero;stroke:none"
             id="path54" /></g><g
           id="g56"
           transform="translate(87.6499,61.2217)"><path
             d="m 0,0 h 6.081 v -5.41 h 0.128 c 1.877,3.868 6.416,6.209 11.163,6.209 8.821,0 12.761,-5.482 12.761,-14.631 V -34.08 h -6.281 v 17.643 c 0,7.944 -1.734,11.826 -7.216,12.155 -7.151,0 -10.356,-5.739 -10.356,-14.032 V -34.08 H 0 Z"
             style="fill:#1d1d1b;fill-opacity:1;fill-rule:nonzero;stroke:none"
             id="path58" /></g><g
           id="g60"
           transform="translate(129.0093,61.2217)"><path
             d="m 0,0 h 6.081 v -5.41 h 0.128 c 1.877,3.868 6.416,6.209 11.163,6.209 8.821,0 12.761,-5.482 12.761,-14.631 V -34.08 h -6.281 v 17.643 c 0,7.944 -1.734,11.826 -7.215,12.155 -7.152,0 -10.356,-5.739 -10.356,-14.032 V -34.08 H 0 Z"
             style="fill:#1d1d1b;fill-opacity:1;fill-rule:nonzero;stroke:none"
             id="path62" /></g><g
           id="g64"
           transform="translate(196.4932,28.5459)"><path
             d="m 0,0 c -2.405,-0.87 -5.146,-2.205 -10.755,-2.205 -12.098,0 -17.643,7.351 -17.643,18.442 0,10.092 6.352,17.237 15.972,17.237 11.356,0 15.031,-8.287 15.031,-19.243 h -24.323 c 0,-6.751 5.281,-11.354 11.227,-11.354 4.146,0 8.957,2.134 10.491,3.404 z m -4.075,18.906 c 0,5.218 -3.076,9.492 -8.486,9.492 -6.145,0 -8.686,-5.081 -9.157,-9.492 z"
             style="fill:#1d1d1b;fill-opacity:1;fill-rule:nonzero;stroke:none"
             id="path66" /></g><g
           id="g68"
           transform="translate(229.7031,55.4707)"><path
             d="m 0,0 c -2.405,1.007 -4.811,1.471 -6.816,1.471 -7.016,0 -10.963,-6.282 -10.963,-12.762 0,-6.08 3.276,-12.761 11.362,-12.761 2.134,0 4.811,0.671 6.752,1.935 l 0.464,-5.611 c -2.605,-1.206 -5.61,-1.398 -7.879,-1.398 -10.292,0 -17.372,8.079 -17.372,17.835 0,10.356 6.945,17.843 17.372,17.843 2.534,0 5.809,-0.607 7.615,-1.334 z"
             style="fill:#1d1d1b;fill-opacity:1;fill-rule:nonzero;stroke:none"
             id="path70" /></g><g
           id="g72"
           transform="translate(256.3608,56.1416)"><path
             d="m 0,0 h -9.021 v -18.642 c 0,-3.939 2.405,-6.081 5.281,-6.081 1.934,0 3.34,0.6 4.275,1.206 v -5.345 c -1.406,-0.4 -3.34,-0.935 -5.346,-0.935 -6.48,0 -10.491,3.068 -10.491,9.885 V 0 h -7.679 v 5.082 h 7.679 v 7.879 l 6.281,2.006 V 5.082 l 9.021,0 z"
             style="fill:#1d1d1b;fill-opacity:1;fill-rule:nonzero;stroke:none"
             id="path74" /></g><path
           d="m 265.179,68.836 h 7.08 v 7.087 h -7.08 z m 0.4,-41.695 h 6.28 v 34.08 h -6.28 z"
           style="fill:#1d1d1b;fill-opacity:1;fill-rule:nonzero;stroke:none"
           id="path76" /><g
           id="g78"
           transform="translate(283.8906,61.2217)"><path
             d="m 0,0 h 6.081 v -5.41 h 0.128 c 1.877,3.868 6.416,6.209 11.163,6.209 8.821,0 12.761,-5.482 12.761,-14.631 V -34.08 h -6.281 v 17.643 c 0,7.944 -1.734,11.826 -7.215,12.155 -7.152,0 -10.356,-5.739 -10.356,-14.032 V -34.08 H 0 Z"
             style="fill:#1d1d1b;fill-opacity:1;fill-rule:nonzero;stroke:none"
             id="path80" /></g><g
           id="g82"
           transform="translate(355.3857,28.6133)"><path
             d="m 0,0 c 0,-10.355 -5.346,-16.301 -17.572,-16.301 -3.611,0 -6.751,0.464 -12.233,2.334 l 0.671,5.817 c 4.811,-2.205 7.68,-3.077 12.298,-3.077 6.616,0 10.555,4.483 10.555,11.698 v 3.333 h -0.136 c -2.668,-3.539 -7.079,-5.274 -11.426,-5.274 -9.756,0 -14.567,7.95 -14.567,16.772 0,8.75 4.947,18.107 15.238,18.107 6.009,0 9.35,-2.206 11.227,-5.881 h 0.128 v 5.081 H 0 Z m -6.281,15.166 c 0,7.088 -3.276,13.161 -9.956,13.161 -6.352,0 -9.492,-6.88 -9.492,-12.697 0,-6.408 3.611,-12.019 9.492,-12.019 5.881,0 9.956,5.203 9.956,11.555"
             style="fill:#1d1d1b;fill-opacity:1;fill-rule:nonzero;stroke:none"
             id="path84" /></g><path
           d="m 386.125,68.836 h 7.08 v 7.087 h -7.08 z m 0.392,-41.695 h 6.281 v 34.08 h -6.281 z"
           style="fill:#1d1d1b;fill-opacity:1;fill-rule:nonzero;stroke:none"
           id="path86" /><g
           id="g88"
           transform="translate(428.9502,31.9512)"><path
             d="m 0,0 h -0.136 c -1.67,-2.534 -5.546,-5.61 -11.626,-5.61 -10.285,0 -14.632,9.157 -14.632,18.442 0,9.157 4.811,17.236 14.703,17.236 5.945,0 9.357,-2.334 11.291,-5.474 h 0.135 V 45.306 H 6.017 V -4.811 H 0 Z m -10.292,-0.528 c 7.087,0 10.027,7.008 10.027,12.689 0,6.345 -3.275,12.832 -10.091,12.832 -6.816,0 -9.485,-6.416 -9.357,-12.632 -0.128,-5.345 2.676,-12.889 9.421,-12.889"
             style="fill:#1d1d1b;fill-opacity:1;fill-rule:nonzero;stroke:none"
             id="path90" /></g><g
           id="g92"
           transform="translate(472.3164,28.5459)"><path
             d="m 0,0 c -2.405,-0.87 -5.146,-2.205 -10.763,-2.205 -12.091,0 -17.635,7.351 -17.635,18.442 0,10.092 6.344,17.237 15.972,17.237 11.356,0 15.03,-8.287 15.03,-19.243 h -24.323 c 0,-6.751 5.282,-11.354 11.228,-11.354 4.146,0 8.949,2.134 10.491,3.404 z m -4.075,18.906 c 0,5.218 -3.076,9.492 -8.487,9.492 -6.152,0 -8.693,-5.081 -9.157,-9.492 z"
             style="fill:#1d1d1b;fill-opacity:1;fill-rule:nonzero;stroke:none"
             id="path94" /></g><g
           id="g96"
           transform="translate(485.4775,58.8144)"><path
             d="m 0,0 c 3.14,1.869 6.88,3.204 11.227,3.204 9.755,0 13.695,-4.804 13.695,-14.096 v -14.102 c 0,-3.869 0.136,-5.675 0.271,-6.681 h -5.881 v 4.411 h -0.135 c -1.47,-2.07 -4.811,-5.211 -10.556,-5.211 -7.351,0 -12.497,3.212 -12.497,10.621 0,8.557 9.356,11.226 15.837,11.226 2.477,0 4.211,0 6.681,-0.128 0,5.881 -2.134,8.886 -8.422,8.886 -3.54,0 -7.344,-1.335 -9.885,-3.476 z m 18.642,-15.438 c -1.335,0 -2.669,0.135 -4.004,0.135 -3.411,0 -11.833,-0.535 -11.833,-6.551 0,-3.604 3.475,-5.539 6.351,-5.539 6.217,0 9.486,3.875 9.486,8.951 z"
             style="fill:#1d1d1b;fill-opacity:1;fill-rule:nonzero;stroke:none"
             id="path98" /></g><g
           id="g100"
           transform="translate(519.0195,33.8232)"><path
             d="m 0,0 c 2.47,-1.599 6.017,-2.397 7.822,-2.397 2.869,0 6.409,1.198 6.409,4.874 0,6.21 -14.766,5.673 -14.766,15.23 0,7.08 5.281,10.492 12.033,10.492 2.934,0 5.339,-0.607 7.815,-1.335 l -0.535,-5.481 c -1.406,0.871 -5.146,1.734 -6.616,1.734 -3.205,0 -6.016,-1.335 -6.016,-4.139 0,-6.945 14.773,-4.946 14.773,-15.837 0,-7.287 -5.816,-10.62 -11.898,-10.62 -3.204,0 -6.48,0.328 -9.356,1.87 z"
             style="fill:#1d1d1b;fill-opacity:1;fill-rule:nonzero;stroke:none"
             id="path102" /></g></g></g></g></svg>
